<svg width="749" height="677" viewBox="0 0 749 677" fill="none" xmlns="http://www.w3.org/2000/svg">
<g opacity="0.04" filter="url(#filter0_f_587_640)">
<path fill-rule="evenodd" clip-rule="evenodd" d="M668.646 359.806L668.395 363.431L667.847 367.044L667.007 370.636L665.878 374.199L664.465 377.722L662.775 381.199L660.817 384.62L658.601 387.979L656.138 391.267L653.44 394.48L650.521 397.61L647.396 400.654L644.081 403.606L640.592 406.463L636.945 409.223L633.159 411.883L629.25 414.443L625.235 416.902L621.133 419.261L616.958 421.519L612.728 423.68L608.457 425.744L604.159 427.714L599.847 429.594L595.534 431.385L591.232 433.092L586.95 434.718L582.7 436.268L578.488 437.744L574.324 439.152L570.215 440.496L566.168 441.78L562.188 443.009L558.284 444.187L554.46 445.321L550.721 446.416L547.074 447.476L543.523 448.508L540.073 449.518L536.73 450.511L533.496 451.495L530.377 452.476L527.376 453.46L524.496 454.455L521.74 455.466L519.111 456.501L516.61 457.567L514.24 458.67L512.001 459.817L509.893 461.015L507.916 462.269L506.07 463.586L504.351 464.972L502.76 466.43L501.292 467.968L499.944 469.588L498.711 471.295L497.59 473.091L496.574 474.981L495.658 476.965L494.835 479.046L494.098 481.223L493.439 483.497L492.851 485.867L492.325 488.331L491.851 490.888L491.423 493.534L491.029 496.266L490.662 499.079L490.311 501.969L489.967 504.928L489.622 507.952L489.265 511.032L488.888 514.162L488.482 517.333L488.039 520.537L487.55 523.766L487.008 527.009L486.407 530.258L485.739 533.503L484.998 536.735L484.179 539.943L483.277 543.119L482.288 546.253L481.209 549.336L480.036 552.358L478.768 555.313L477.403 558.19L475.941 560.983L474.382 563.686L472.725 566.291L470.974 568.793L469.129 571.187L467.193 573.469L465.168 575.636L463.06 577.685L460.871 579.615L458.605 581.425L456.268 583.116L453.864 584.687L451.398 586.141L448.875 587.481L446.301 588.709L443.68 589.829L441.019 590.846L438.321 591.764L435.592 592.589L432.837 593.325L430.058 593.977L427.261 594.552L424.449 595.052L421.625 595.483L418.791 595.847L415.95 596.149L413.104 596.389L410.255 596.568L407.403 596.686L404.55 596.742L401.697 596.734L398.845 596.661L395.995 596.52L393.148 596.308L390.306 596.024L387.47 595.663L384.641 595.225L381.821 594.708L379.013 594.109L376.217 593.429L373.437 592.666L370.673 591.822L367.929 590.896L365.206 589.89L362.507 588.807L359.833 587.647L357.186 586.416L354.569 585.115L351.982 583.75L349.428 582.325L346.907 580.845L344.42 579.315L341.969 577.741L339.554 576.129L337.174 574.486L334.831 572.817L332.522 571.13L330.249 569.43L328.01 567.726L325.803 566.022L323.627 564.326L321.481 562.644L319.362 560.982L317.268 559.347L315.197 557.744L313.144 556.179L311.109 554.657L309.087 553.183L307.075 551.762L305.07 550.398L303.067 549.094L301.065 547.854L299.057 546.682L297.041 545.58L295.013 544.551L292.969 543.596L290.904 542.716L288.816 541.914L286.699 541.189L284.551 540.543L282.367 539.975L280.143 539.485L277.877 539.072L275.564 538.736L273.2 538.475L270.783 538.287L268.31 538.171L265.777 538.125L263.181 538.146L260.519 538.231L257.79 538.379L254.99 538.585L252.117 538.846L249.169 539.16L246.145 539.522L243.042 539.929L239.859 540.376L236.595 540.859L233.248 541.375L229.819 541.918L226.307 542.484L222.711 543.067L219.032 543.664L215.269 544.269L211.425 544.875L207.499 545.479L203.494 546.074L199.412 546.654L195.255 547.214L191.025 547.747L186.727 548.246L182.364 548.705L177.942 549.118L173.464 549.477L168.938 549.775L164.371 550.004L159.77 550.156L155.146 550.222L150.509 550.193L145.872 550.058L141.248 549.809L136.65 549.436L132.095 548.93L127.598 548.281L123.175 547.481L118.843 546.522L114.618 545.399L110.518 544.105L106.558 542.636L102.754 540.988L99.1226 539.16L95.6774 537.151L92.4323 534.96L89.4004 532.59L86.5934 530.042L84.0219 527.322L81.6954 524.433L79.6221 521.382L77.8085 518.176L76.2602 514.823L74.981 511.331L73.9733 507.71L73.2381 503.971L72.7747 500.123L72.5812 496.178L72.654 492.147L72.9882 488.042L73.5773 483.876L74.4137 479.659L75.4882 475.405L76.7905 471.124L78.309 466.83L80.0312 462.532L81.9432 458.242L84.0305 453.971L86.2774 449.728L88.6676 445.524L91.1841 441.367L93.8094 437.265L96.5253 433.226L99.3133 429.256L102.155 425.361L105.031 421.547L107.923 417.817L110.811 414.174L113.678 410.621L116.504 407.16L119.272 403.791L121.963 400.513L124.562 397.326L127.052 394.227L129.417 391.213L131.642 388.282L133.714 385.429L135.62 382.648L137.349 379.934L138.889 377.282L140.233 374.683L141.371 372.132L142.297 369.62L143.006 367.14L143.493 364.683L143.757 362.241L143.795 359.806L143.609 357.369L143.2 354.922L142.57 352.457L141.725 349.966L140.669 347.44L139.41 344.872L137.956 342.255L136.317 339.582L134.502 336.847L132.524 334.045L130.395 331.17L128.128 328.219L125.738 325.186L123.239 322.07L120.647 318.869L117.978 315.579L115.248 312.202L112.475 308.737L109.674 305.184L106.864 301.546L104.061 297.825L101.281 294.024L98.5394 290.145L95.8512 286.194L93.2291 282.175L90.6847 278.09L88.2283 273.946L85.8703 269.747L83.621 265.499L81.4903 261.206L79.4881 256.877L77.6233 252.517L75.9045 248.132L74.3395 243.731L72.9351 239.32L71.6975 234.906L70.6318 230.496L69.7423 226.098L69.0324 221.718L68.5045 217.363L68.1602 213.039L68 208.753L68.0238 204.51L68.2307 200.317L68.6188 196.177L69.1858 192.097L69.9285 188.08L70.8435 184.131L71.9264 180.252L73.1728 176.448L74.5775 172.722L76.1353 169.074L77.8405 165.509L79.6874 162.027L81.6699 158.629L83.7821 155.317L86.0177 152.092L88.3708 148.953L90.8352 145.902L93.4049 142.938L96.0741 140.061L98.8371 137.271L101.688 134.568L104.623 131.95L107.635 129.418L110.72 126.97L113.874 124.607L117.091 122.328L120.369 120.132L123.703 118.02L127.089 115.99L130.525 114.042L134.008 112.177L137.534 110.394L141.101 108.695L144.707 107.078L148.349 105.546L152.025 104.098L155.735 102.736L159.475 101.46L163.245 100.272L167.042 99.174L170.866 98.1664L174.715 97.2514L178.587 96.4306L182.482 95.7059L186.397 95.0791L190.331 94.5522L194.283 94.127L198.25 93.8055L202.232 93.5894L206.227 93.4804L210.231 93.4801L214.244 93.59L218.263 93.8112L222.285 94.1447L226.309 94.5913L230.33 95.1513L234.348 95.8249L238.357 96.6117L242.356 97.5111L246.342 98.522L250.31 99.6428L254.257 100.872L258.181 102.206L262.077 103.644L265.943 105.18L269.774 106.813L273.568 108.537L277.321 110.348L281.029 112.241L284.691 114.211L288.302 116.25L291.86 118.351L295.36 120.502L298.8 122.692L302.176 124.906L305.486 127.129L308.728 129.348L311.9 131.545L315.001 133.707L318.031 135.818L320.991 137.862L323.883 139.827L326.708 141.696L329.469 143.457L332.169 145.096L334.813 146.602L337.404 147.961L339.948 149.163L342.451 150.199L344.918 151.059L347.356 151.735L349.773 152.222L352.175 152.512L354.569 152.602L356.964 152.489L359.366 152.171L361.785 151.647L364.226 150.918L366.699 149.987L369.211 148.856L371.769 147.532L374.379 146.019L377.049 144.326L379.785 142.46L382.591 140.432L385.474 138.253L388.438 135.935L391.486 133.49L394.623 130.933L397.849 128.279L401.167 125.544L404.577 122.743L408.079 119.894L411.673 117.014L415.356 114.122L419.126 111.235L422.979 108.372L426.91 105.552L430.915 102.793L434.987 100.113L439.118 97.5312L443.301 95.0648L447.528 92.7314L451.789 90.5477L456.074 88.5299L460.373 86.6934L464.675 85.0527L468.968 83.6213L473.241 82.4118L477.482 81.4354L481.677 80.7023L485.816 80.2214L489.886 80L493.874 80.0443L497.768 80.3589L501.558 80.9469L505.231 81.8098L508.778 82.9478L512.187 84.3592L515.45 86.041L518.559 87.9887L521.504 90.1961L524.281 92.6556L526.883 95.3584L529.306 98.2941L531.546 101.451L533.603 104.817L535.474 108.377L537.161 112.117L538.666 116.022L539.992 120.075L541.143 124.259L542.125 128.558L542.945 132.954L543.61 137.43L544.129 141.968L544.511 146.553L544.767 151.169L544.905 155.8L544.937 160.433L544.873 165.054L544.723 169.652L544.499 174.214L544.212 178.728L543.875 183.184L543.5 187.573L543.098 191.885L542.682 196.113L542.263 200.248L541.855 204.285L541.47 208.218L541.119 212.042L540.815 215.752L540.569 219.345L540.395 222.818L540.302 226.169L540.303 229.398L540.409 232.503L540.629 235.485L540.973 238.345L541.452 241.085L542.073 243.708L542.844 246.218L543.773 248.618L544.865 250.913L546.126 253.109L547.561 255.212L549.172 257.229L550.961 259.167L552.93 261.034L555.078 262.838L557.404 264.588L559.906 266.292L562.579 267.96L565.42 269.602L568.421 271.226L571.575 272.842L574.874 274.46L578.307 276.088L581.865 277.737L585.536 279.415L589.305 281.13L593.161 282.892L597.087 284.707L601.068 286.583L605.089 288.527L609.132 290.544L613.18 292.641L617.216 294.822L621.22 297.09L625.175 299.45L629.062 301.902L632.862 304.45L636.559 307.093L640.132 309.831L643.564 312.664L646.839 315.589L649.939 318.604L652.848 321.704L655.551 324.887L658.034 328.147L660.283 331.477L662.285 334.873L664.031 338.326L665.509 341.829L666.712 345.375L667.631 348.954L668.263 352.558L668.602 356.179L668.646 359.806Z" fill="#FD6F00"/>
</g>
<defs>
<filter id="filter0_f_587_640" x="-12" y="0" width="760.646" height="676.742" filterUnits="userSpaceOnUse" color-interpolation-filters="sRGB">
<feFlood flood-opacity="0" result="BackgroundImageFix"/>
<feBlend mode="normal" in="SourceGraphic" in2="BackgroundImageFix" result="shape"/>
<feGaussianBlur stdDeviation="40" result="effect1_foregroundBlur_587_640"/>
</filter>
</defs>
</svg>
