<svg width="59" height="56" viewBox="0 0 59 56" fill="none" xmlns="http://www.w3.org/2000/svg">
<path fill-rule="evenodd" clip-rule="evenodd" d="M22.31 35.2078C31.8154 35.2078 44.4533 36.2783 44.4533 45.5387C44.4533 55.2935 29.7274 55.8788 23.4107 55.9139L21.1173 55.9139C14.3823 55.879 0.166626 55.297 0.166626 45.597C0.166626 35.8312 14.8926 35.2452 21.2092 35.2101L21.9681 35.2079C22.0864 35.2078 22.2004 35.2078 22.31 35.2078ZM22.31 39.5828C14.2045 39.5828 4.54163 40.6241 4.54163 45.597C4.54163 49.5403 10.5208 51.5412 22.31 51.5412C34.0991 51.5412 40.0783 49.5199 40.0783 45.5387C40.0783 41.5866 34.0991 39.5828 22.31 39.5828ZM48.8945 33.8455C56.787 35.0267 58.4407 38.6813 58.4407 41.5367C58.4407 43.663 57.522 46.5417 53.1383 48.2013C52.8845 48.2975 52.622 48.3442 52.3624 48.3442C51.4787 48.3442 50.6474 47.8046 50.3178 46.9325C49.8891 45.8038 50.4578 44.538 51.5866 44.1121C54.0657 43.173 54.0658 42.0267 54.0658 41.5367C54.0658 39.883 52.1087 38.7513 48.2499 38.1767C47.0541 37.9959 46.2287 36.8817 46.4066 35.6888C46.5874 34.493 47.722 33.6909 48.8945 33.8455ZM22.31 0.333252C30.567 0.333252 37.2872 7.05325 37.2872 15.3103C37.3045 19.2887 35.7616 23.0453 32.95 25.8745C30.1441 28.7066 26.3962 30.2728 22.4091 30.2874H22.31C14.05 30.2874 7.32996 23.5674 7.32996 15.3103C7.32996 7.05325 14.05 0.333252 22.31 0.333252ZM42.9821 3.611C48.7134 4.55017 52.8725 9.45309 52.8725 15.266C52.8609 21.1139 48.4946 26.1364 42.7138 26.9473C42.6117 26.9618 42.5096 26.9677 42.4075 26.9677C41.3342 26.9677 40.398 26.1773 40.2434 25.0835C40.0771 23.8877 40.9084 22.7793 42.1042 22.6131C45.7442 22.1027 48.4917 18.9439 48.4975 15.2631C48.4975 11.6056 45.8784 8.51975 42.2763 7.93059C41.0834 7.73225 40.2755 6.60934 40.4709 5.41642C40.6663 4.2235 41.795 3.42142 42.9821 3.611ZM22.31 4.70825C16.462 4.70825 11.705 9.46534 11.705 15.3103C11.705 21.1553 16.462 25.9124 22.31 25.9124H22.4004C25.212 25.9008 27.8604 24.7953 29.8466 22.7916C31.8358 20.7937 32.9237 18.1366 32.9121 15.3191C32.9121 9.46534 28.155 4.70825 22.31 4.70825Z" fill="#FD6F00"/>
</svg>
