<svg width="40" height="40" viewBox="0 0 40 40" fill="none" xmlns="http://www.w3.org/2000/svg">
<circle cx="20" cy="20" r="19.65" fill="white" fill-opacity="0.04" stroke="#575757" stroke-width="0.7"/>
<g clip-path="url(#clip0_587_667)">
<path d="M26 11C26.7956 11 27.5587 11.3161 28.1213 11.8787C28.6839 12.4413 29 13.2044 29 14V26C29 26.7956 28.6839 27.5587 28.1213 28.1213C27.5587 28.6839 26.7956 29 26 29H14C13.2044 29 12.4413 28.6839 11.8787 28.1213C11.3161 27.5587 11 26.7956 11 26V14C11 13.2044 11.3161 12.4413 11.8787 11.8787C12.4413 11.3161 13.2044 11 14 11H26ZM26 13H14C13.7348 13 13.4804 13.1054 13.2929 13.2929C13.1054 13.4804 13 13.7348 13 14V26C13 26.2652 13.1054 26.5196 13.2929 26.7071C13.4804 26.8946 13.7348 27 14 27H26C26.2652 27 26.5196 26.8946 26.7071 26.7071C26.8946 26.5196 27 26.2652 27 26V14C27 13.7348 26.8946 13.4804 26.7071 13.2929C26.5196 13.1054 26.2652 13 26 13ZM16 18C16.2449 18 16.4813 18.09 16.6644 18.2527C16.8474 18.4155 16.9643 18.6397 16.993 18.883L17 19V24C16.9997 24.2549 16.9021 24.5 16.7272 24.6854C16.5522 24.8707 16.313 24.9822 16.0586 24.9972C15.8042 25.0121 15.5536 24.9293 15.3582 24.7657C15.1627 24.6021 15.0371 24.3701 15.007 24.117L15 24V19C15 18.7348 15.1054 18.4804 15.2929 18.2929C15.4804 18.1054 15.7348 18 16 18ZM19 17C19.2342 17 19.461 17.0821 19.6408 17.2322C19.8206 17.3822 19.9421 17.5906 19.984 17.821C20.1852 17.7043 20.3933 17.5998 20.607 17.508C21.274 17.223 22.273 17.066 23.175 17.349C23.648 17.499 24.123 17.779 24.475 18.256C24.79 18.681 24.96 19.198 24.994 19.779L25 20V24C24.9997 24.2549 24.9021 24.5 24.7272 24.6854C24.5522 24.8707 24.313 24.9822 24.0586 24.9972C23.8042 25.0121 23.5536 24.9293 23.3582 24.7657C23.1627 24.6021 23.0371 24.3701 23.007 24.117L23 24V20C23 19.67 22.92 19.516 22.868 19.445C22.7934 19.3522 22.6905 19.2862 22.575 19.257C22.227 19.147 21.726 19.205 21.393 19.347C20.893 19.561 20.435 19.897 20.123 20.208L20 20.34V24C19.9997 24.2549 19.9021 24.5 19.7272 24.6854C19.5522 24.8707 19.313 24.9822 19.0586 24.9972C18.8042 25.0121 18.5536 24.9293 18.3582 24.7657C18.1627 24.6021 18.0371 24.3701 18.007 24.117L18 24V18C18 17.7348 18.1054 17.4804 18.2929 17.2929C18.4804 17.1054 18.7348 17 19 17ZM16 15C16.2652 15 16.5196 15.1054 16.7071 15.2929C16.8946 15.4804 17 15.7348 17 16C17 16.2652 16.8946 16.5196 16.7071 16.7071C16.5196 16.8946 16.2652 17 16 17C15.7348 17 15.4804 16.8946 15.2929 16.7071C15.1054 16.5196 15 16.2652 15 16C15 15.7348 15.1054 15.4804 15.2929 15.2929C15.4804 15.1054 15.7348 15 16 15Z" fill="#BABABA"/>
</g>
<defs>
<clipPath id="clip0_587_667">
<rect width="24" height="24" fill="white" transform="translate(8 8)"/>
</clipPath>
</defs>
</svg>
